<svg width="16" height="15" viewBox="0 0 16 15" fill="none" xmlns="http://www.w3.org/2000/svg">
<path d="M15.8633 3.77868C15.8115 3.71731 15.7469 3.66801 15.6741 3.63421C15.6012 3.6004 15.5219 3.58293 15.4416 3.58299H12.6441C12.5107 2.5917 12.0225 1.68238 11.2699 1.02355C10.5174 0.364721 9.55145 0.00107156 8.55123 0H7.44877C6.44855 0.00107156 5.48264 0.364721 4.73006 1.02355C3.97747 1.68238 3.48925 2.5917 3.35589 3.58299H0.558404C0.478104 3.58293 0.39876 3.6004 0.325921 3.63421C0.253082 3.66801 0.188507 3.71731 0.136714 3.77868C0.0831283 3.83981 0.0437265 3.91203 0.0213312 3.99018C-0.00106399 4.06832 -0.00589823 4.15045 0.00717485 4.23069L1.4762 12.5818C1.5514 12.9971 1.77057 13.3726 2.0952 13.6423C2.41983 13.9119 2.82913 14.0586 3.25116 14.0563H12.7488C13.1698 14.0565 13.5775 13.9086 13.9005 13.6385C14.2234 13.3685 14.4412 12.9934 14.5155 12.5791L15.9928 4.23069C16.0059 4.15045 16.0011 4.06832 15.9787 3.99018C15.9563 3.91203 15.9169 3.83981 15.8633 3.77868ZM7.44877 1.10246H8.55123C9.25937 1.10289 9.94501 1.35118 10.4892 1.80427C11.0334 2.25736 11.4019 2.88666 11.5306 3.58299H4.46938C4.59813 2.88666 4.96657 2.25736 5.51078 1.80427C6.05499 1.35118 6.74064 1.10289 7.44877 1.10246ZM13.4324 12.3861C13.4027 12.5457 13.3181 12.6899 13.1933 12.7936C13.0684 12.8973 12.9112 12.954 12.7488 12.9539H3.25116C3.09137 12.9552 2.9361 12.9009 2.81191 12.8004C2.68772 12.6998 2.60234 12.5592 2.57039 12.4027L1.21437 4.68545H14.7856L13.4324 12.3861Z" fill="white"/>
</svg>
